<?xml version="1.0" encoding="UTF-8" standalone="no"?>
<!-- Created with Inkscape (http://www.inkscape.org/) -->

<svg
   xmlns:dc="http://purl.org/dc/elements/1.1/"
   xmlns:cc="http://creativecommons.org/ns#"
   xmlns:rdf="http://www.w3.org/1999/02/22-rdf-syntax-ns#"
   xmlns:svg="http://www.w3.org/2000/svg"
   xmlns="http://www.w3.org/2000/svg"
   xmlns:sodipodi="http://sodipodi.sourceforge.net/DTD/sodipodi-0.dtd"
   xmlns:inkscape="http://www.inkscape.org/namespaces/inkscape"
   version="1.1"
   id="svg938"
   width="236.48"
   height="532"
   viewBox="0 0 236.48 532"
   sodipodi:docname="Logo.svg"
   inkscape:version="0.92.5 (2060ec1f9f, 2020-04-08)">
  <metadata
     id="metadata944">
    <rdf:RDF>
      <cc:Work
         rdf:about="">
        <dc:format>image/svg+xml</dc:format>
        <dc:type
           rdf:resource="http://purl.org/dc/dcmitype/StillImage" />
        <dc:title></dc:title>
      </cc:Work>
    </rdf:RDF>
  </metadata>
  <defs
     id="defs942" />
  <sodipodi:namedview
     pagecolor="#ffffff"
     bordercolor="#666666"
     borderopacity="1"
     objecttolerance="10"
     gridtolerance="10"
     guidetolerance="10"
     inkscape:pageopacity="0"
     inkscape:pageshadow="2"
     inkscape:window-width="1366"
     inkscape:window-height="704"
     id="namedview940"
     showgrid="false"
     inkscape:zoom="0.9887218"
     inkscape:cx="284.46257"
     inkscape:cy="266"
     inkscape:window-x="0"
     inkscape:window-y="27"
     inkscape:window-maximized="1"
     inkscape:current-layer="svg938" />
  <path
     style="fill:#000000;stroke-width:0.16"
     d="m 136.62767,531.62953 c 0.002,-0.198 0.0734,-1.836 0.1587,-3.64 0.25324,-5.35371 -0.11006,-11.26322 -1.05249,-17.12 -2.93815,-18.25926 -12.53557,-37.39214 -27.08742,-54 -2.43025,-2.7736 -10.649452,-10.94309 -14.102332,-14.01699 -3.9903,-3.55235 -11.25828,-9.82416 -38.64,-33.34389 -42.02978,-36.10179 -42.64312,-36.64971 -46.01569,-41.10808 -7.9167399,-10.4655 -11.38829,-26.88325 -9.25542994,-43.77104 0.66042004,-5.22912 0.99092004,-6.74642 8.36444994,-38.4 1.0967,-4.708 2.44012,-10.54 2.98536,-12.96 1.80039,-7.99077 2.81764,-10.90539 4.89672,-14.03006 1.64116,-2.46652 3.42886,-3.93888 5.85105,-4.819 1.09234,-0.39691 1.3562,-0.42651 3.81354,-0.42792 2.17845,-0.002 2.92934,0.0632 4.29499,0.36836 2.35485,0.52624 4.59321,1.33505 6.93885,2.50729 3.82452,1.91133 4.52291,2.39999 24.44616,17.10455 25.65602,18.93571 30.53133,22.47193 70.689432,51.27352 13.01267,9.33275 17.91749,12.9336 17.94024,13.17076 0.0187,0.19492 -4.06828,3.54116 -6.41048,5.24861 -5.90318,4.30338 -11.12273,7.51987 -17.0192,10.48792 -7.89503,3.97405 -13.2377,5.84469 -21.28,7.45085 -4.38652,0.87605 -6.844302,0.69298 -9.759992,-0.72702 -3.52719,-1.7178 -16.00158,-11.00229 -24.4,-18.16055 -5.39666,-4.59974 -8.50846,-7.55054 -31.04,-29.43406 -3.91263,-3.8001 -7.62552,-7.26359 -8.48,-7.91039 -2.71358,-2.05401 -5.58468,-3.2819 -8.53583,-3.65054 -5.56148,-0.69467 -9.647,3.41558 -9.33118,9.38768 0.22671,4.2869 2.41444,8.80782 6.18694,12.78526 1.8089,1.90717 41.04391,37.85186 56.08007,51.37711 6.53769,5.88075 9.86893,8.80485 20.32,17.83653 11.011092,9.51564 16.028992,13.94084 19.359992,17.07324 15.28275,14.37156 24.93804,28.48327 30.08301,43.96786 2.2429,6.75035 3.40588,12.32773 4.18704,20.08 0.39564,3.92637 0.39383,14.15922 -0.003,17.84 -1.52374,14.12776 -5.15298,24.97794 -12.5609,37.55269 -0.7623,1.29397 -1.44,2.35597 -1.506,2.36 -0.066,0.004 -0.1184,-0.15469 -0.11645,-0.35269 z M 29.984128,377.59391 c 13.01186,-0.9015 15.9796,-1.56692 17.15225,-3.84585 0.64716,-1.25771 0.752,-2.41781 0.54508,-6.03151 -0.4039,-7.05401 -1.28042,-14.0236 -1.95775,-15.56702 -0.80588,-1.83635 -1.86673,-2.33598 -5.63538,-2.65419 -2.4305,-0.20522 -3.18317,-0.20323 -6.5842,0.0173 -7.096,0.46012 -9.57369,0.81333 -11.08785,1.58061 -1.02888,0.52136 -1.98803,1.59927 -2.44643,2.74928 -0.35186,0.88275 -0.37675,1.15327 -0.36683,3.98701 0.009,2.57434 0.13785,4.15515 0.84107,10.32 1.06639,9.3485 1.02732,9.10998 1.56932,9.58149 0.41047,0.35709 0.52592,0.37553 1.80462,0.28846 0.75135,-0.0512 3.5261,-0.24268 6.1661,-0.42558 z M 156.62412,327.91772 c -10.38276,-1.35656 -19.98051,-6.58822 -40.96,-22.32699 -29.357542,-22.02397 -46.955542,-34.65965 -63.129342,-45.32797 -4.58729,-3.02581 -6.64154,-4.52713 -8.49605,-6.20921 -3.3307,-3.02103 -5.82264,-6.57016 -6.95383,-9.90402 -0.45765,-1.34877 -0.51716,-1.72728 -0.52826,-3.36 -0.0104,-1.52434 0.0503,-2.02186 0.35389,-2.90005 0.70077,-2.02739 2.49345,-4.49267 4.35051,-5.98278 1.8199,-1.46031 7.87877,-4.78717 14.27367,-7.83755 9.71657,-4.63484 10.73635,-5.23156 13.25085,-7.75362 0.83679,-0.8393 2.31279,-2.57 3.28,-3.846 l 1.75857,-2.32 v -1.04558 c 0,-0.93309 -0.0881,-1.22573 -0.81876,-2.72 -1.36238,-2.78616 -3.45524,-5.44887 -6.12382,-7.79122 -0.75758,-0.66498 -6.84942,-5.3149 -13.53742,-10.33317 -14.49431,-10.87566 -20.04065,-15.10133 -22.37284,-17.04547 -4.52323,-3.77061 -9.35582,-8.52752 -10.79856,-10.62942 -1.14317,-1.6655 -2.18708,-3.91444 -2.5818,-5.56211 -1.14438,-4.77706 -0.0687,-10.00185 2.85514,-13.86814 1.31914,-1.74432 5.76365,-6.20347 7.82659,-7.85235 7.32998,-5.85877 16.42601,-9.96957 25.3757,-11.46811 4.02425,-0.67383 6.23397,-0.67171 9.22605,0.009 3.53033,0.80296 4.28319,3.63988 2.11954,7.98675 -0.70138,1.4091 -1.11118,1.9477 -2.55826,3.36228 -1.57102,1.53576 -2.01585,2.50068 -2.10111,4.55772 -0.12065,2.91113 0.90275,5.78803 2.78043,7.8161 0.69605,0.7518 2.66843,2.30466 6.33976,4.99133 38.997852,28.53853 41.173322,30.16566 43.736592,32.71254 2.3419,2.32693 3.71978,5.03823 3.99864,7.86824 0.21567,2.18869 -0.55542,4.21946 -2.16373,5.69851 -3.03606,2.79207 -7.50516,5.27397 -17.202142,9.55316 -8.42933,3.71979 -12.30306,5.89147 -15.93342,8.93257 -3.50913,2.93954 -4.63802,4.95519 -4.41373,7.88079 0.42501,5.54401 6.03659,10.12379 11.09232,9.05276 1.1998,-0.25417 5.98338,-2.3662 22.572862,-9.96628 15.30815,-7.01308 18.84025,-8.43072 24.68196,-9.90631 3.93262,-0.99336 4.85377,-1.10973 8.8,-1.11165 3.99088,-0.002 5.72823,0.24088 8.6924,1.21492 1.83702,0.60363 4.90829,2.09108 6.5876,3.19044 1.36768,0.89535 13.10003,9.72605 34.96,26.31372 32.42176,24.60208 31.13925,23.60505 34.56,26.8668 2.95205,2.8148 4.2784,4.50416 5.60082,7.13363 1.35822,2.70072 1.4392,3.0407 1.43905,6.04238 -1.3e-4,2.64955 -0.005,2.68666 -0.48673,3.70498 -1.13106,2.39086 -2.98712,4.55816 -5.53621,6.46454 -0.72573,0.54277 -2.74543,1.88219 -4.48821,2.97651 -1.7428,1.09434 -7.70472,4.98938 -13.24872,8.65568 -16.59771,10.9762 -21.06667,13.69704 -29.04,17.68045 -7.12917,3.56167 -11.8917,5.25941 -17.28,6.15994 -2.59902,0.43437 -7.38182,0.55317 -9.76,0.24245 z m 21.41136,-30.63795 c 1.41678,-0.4084 3.13091,-1.24806 4.43267,-2.17134 1.2428,-0.88144 3.06677,-2.81671 3.44991,-3.66039 0.36156,-0.79619 0.39118,-1.98507 0.0687,-2.75693 -0.13056,-0.31246 -0.34939,-1.22816 -0.48628,-2.03484 -0.42498,-2.50432 -1.05957,-4.16837 -2.1354,-5.59957 -0.6815,-0.90661 -2.91272,-2.5897 -31.94094,-24.09415 -13.9676,-10.34736 -20.74516,-15.27315 -21.68,-15.75657 -5.85005,-3.02514 -12.84149,-2.39376 -21.52,1.94344 -1.89152,0.94531 -5.82211,3.03421 -5.98832,3.18248 -0.0901,0.0804 -1.87086,-1.27266 18.48838,14.04819 21.23499,15.97986 32.13242,24.20378 40.37994,30.47334 3.3,2.5086 6.46566,4.83375 7.03482,5.16704 1.03678,0.60712 2.84579,1.28512 4.17563,1.56498 1.18249,0.24886 4.39213,0.0774 5.72091,-0.30568 z M 29.029088,223.13955 c -0.31793,-0.4852 -0.71436,-2.20924 -1.18422,-5.15002 -0.5892,-3.68763 -0.8327,-6.77331 -0.9312,-11.8 -0.053,-2.706 -0.10386,-4.91978 -0.11297,-4.91952 -0.009,0 -0.76428,0.14566 -1.67814,0.32309 -2.47045,0.47965 -4.43739,0.7524 -7.37843,1.02317 -3.85474,0.35489 -13.57675,0.9222 -13.9226,0.81243 -0.41629,-0.13211 -0.7322,-1.09419 -1.19307,-3.63339 -0.9353699,-5.15346 -1.2649099,-9.05034 -1.2757299,-15.08578 -0.01,-5.33496 -0.0364,-5.18192 1.1777399,-6.70483 1.2329,-1.5464 2.21107,-1.91939 6.32648,-2.4124 7.76402,-0.9301 14.69968,-0.87018 16.70163,0.14429 2.25028,1.1403 2.64145,2.80315 3.62389,15.40497 0.22091,2.83363 0.40166,5.17906 0.40166,5.21207 0,0.033 0.96656,-0.1054 2.14791,-0.30759 6.71002,-1.14838 16.88153,-1.35293 19.07369,-0.38355 1.80361,0.79754 2.34392,1.81021 2.85968,5.3597 0.75665,5.20732 1.09847,9.37716 1.10888,13.52734 0.01,3.88824 0.007,3.92637 -0.3947,4.70603 -0.7603,1.4773 -1.9021,2.06835 -5.11228,2.6464 -3.57577,0.64387 -10.29988,1.23845 -17.54368,1.55131 l -2.4205,0.10453 z m 73.444972,-4.25394 c -0.0489,-0.0791 2.22076,-2.64456 5.04372,-5.70093 7.20797,-7.8039 8.68557,-9.56091 10.96096,-13.03369 2.16681,-3.30704 3.43753,-6.26527 3.9869,-9.28146 0.41137,-2.25858 0.55426,-10.39483 1.06496,-60.64 0.17486,-17.20407 0.16684,-20.13007 -0.08,-29.2 -0.51911,-19.074557 -0.34115,-26.07973 0.87389,-34.399999 2.15252,-14.739936 7.98248,-27.999618 17.09425,-38.87923 6.72718,-8.032368 15.97956,-15.180192 26.41127,-20.4037228 6.5036,-3.256589 13.61052,-5.603514 21.0805,-6.96143604 3.60549,-0.65541997 3.60766,-0.72949997 -0.0685,2.32438904 -9.18171,7.6275398 -15.21712,15.1915228 -20.42656,25.5999998 -5.53307,11.055077 -8.93026,23.068427 -9.86351,34.88 -0.44755,5.664432 -0.33915,33.281034 0.22986,58.559999 0.12578,5.588 0.26871,13.508 0.31762,17.6 0.0489,4.092 0.17061,11.796 0.27045,17.12 0.19718,10.51488 0.15519,11.59035 -0.59969,15.36 -2.43501,12.15962 -12.27964,24.44424 -25.84857,32.25515 -1.17564,0.67675 -4.62152,2.43586 -7.65752,3.90914 -3.036,1.47328 -9.36151,4.55902 -14.05668,6.8572 -4.69517,2.29817 -8.56093,4.17851 -8.59056,4.17851 -0.0296,0 -0.0939,-0.0648 -0.14282,-0.14392 z"
     id="path948"
     inkscape:connector-curvature="0" />
</svg>
