<?xml version="1.0" encoding="UTF-8" standalone="no"?>
<!-- Created with Inkscape (http://www.inkscape.org/) -->

<svg
   xmlns:dc="http://purl.org/dc/elements/1.1/"
   xmlns:cc="http://creativecommons.org/ns#"
   xmlns:rdf="http://www.w3.org/1999/02/22-rdf-syntax-ns#"
   xmlns:svg="http://www.w3.org/2000/svg"
   xmlns="http://www.w3.org/2000/svg"
   xmlns:sodipodi="http://sodipodi.sourceforge.net/DTD/sodipodi-0.dtd"
   xmlns:inkscape="http://www.inkscape.org/namespaces/inkscape"
   width="210mm"
   height="297mm"
   viewBox="0 0 210 297"
   version="1.1"
   id="svg8"
   inkscape:version="0.92.3 (2405546, 2018-03-11)"
   sodipodi:docname="toranj.svg"
   inkscape:export-filename="/var/www/html/IranianGraphicalElements/toranj.svg.png"
   inkscape:export-xdpi="72.830002"
   inkscape:export-ydpi="72.830002">
  <defs
     id="defs2" />
  <sodipodi:namedview
     id="base"
     pagecolor="#ffffff"
     bordercolor="#666666"
     borderopacity="1.0"
     inkscape:pageopacity="0.0"
     inkscape:pageshadow="2"
     inkscape:zoom="0.7"
     inkscape:cx="252.98236"
     inkscape:cy="568.50554"
     inkscape:document-units="mm"
     inkscape:current-layer="layer1"
     showgrid="false"
     inkscape:window-width="1366"
     inkscape:window-height="729"
     inkscape:window-x="0"
     inkscape:window-y="0"
     inkscape:window-maximized="1" />
  <metadata
     id="metadata5">
    <rdf:RDF>
      <cc:Work
         rdf:about="">
        <dc:format>image/svg+xml</dc:format>
        <dc:type
           rdf:resource="http://purl.org/dc/dcmitype/StillImage" />
        <dc:title />
      </cc:Work>
    </rdf:RDF>
  </metadata>
  <g
     inkscape:groupmode="layer"
     id="layer1"
     inkscape:label="Layer 7"
     style="display:inline">
    <ellipse
       style="opacity:1;fill:#501616;fill-opacity:1;stroke:none;stroke-width:0.51194817;stroke-linecap:round;stroke-miterlimit:4;stroke-dasharray:none;stroke-opacity:1"
       id="path940"
       cx="107.91219"
       cy="177.55954"
       rx="42.900299"
       ry="43.089283" />
    <ellipse
       style="opacity:1;fill:#808000;fill-opacity:1;stroke:none;stroke-width:0.79374999;stroke-linecap:round;stroke-miterlimit:4;stroke-dasharray:none;stroke-opacity:1"
       id="path942"
       cx="71.815475"
       cy="135.98213"
       rx="53.201733"
       ry="56.263405" />
    <ellipse
       style="opacity:1;fill:#2ca02c;fill-opacity:1;stroke:none;stroke-width:0.76250368;stroke-linecap:round;stroke-miterlimit:4;stroke-dasharray:none;stroke-opacity:1"
       id="path948"
       cx="144.19792"
       cy="116.89434"
       rx="51.971725"
       ry="49.703869" />
  </g>
  <g
     inkscape:groupmode="layer"
     id="layer5"
     inkscape:label="Layer 5"
     style="display:inline;opacity:1">
    <path
       style="opacity:1;fill:none;stroke:#000000;stroke-width:0.92955959;stroke-linecap:butt;stroke-linejoin:miter;stroke-miterlimit:4;stroke-dasharray:none;stroke-opacity:1"
       d="m 95.152613,112.14202 c 0,0 -1.078013,-10.33272 9.434857,-4.85497"
       id="path851"
       inkscape:connector-curvature="0"
       sodipodi:nodetypes="cc" />
    <path
       style="opacity:1;fill:none;stroke:#000000;stroke-width:0.92955959;stroke-linecap:butt;stroke-linejoin:miter;stroke-miterlimit:4;stroke-dasharray:none;stroke-opacity:1"
       d="m 97.895857,111.31172 c 0,0 -1.154181,-5.61443 4.381993,-2.71917"
       id="path849"
       inkscape:connector-curvature="0"
       sodipodi:nodetypes="cc" />
    <path
       style="opacity:1;fill:none;stroke:#000000;stroke-width:0.92955959;stroke-linecap:butt;stroke-linejoin:miter;stroke-miterlimit:4;stroke-dasharray:none;stroke-opacity:1"
       d="M 40.563347,150.8158 C 29.542545,145.55271 36.651918,120.63742 55.890802,130.51114"
       id="path840"
       inkscape:connector-curvature="0"
       sodipodi:nodetypes="cc" />
    <path
       style="opacity:1;fill:none;stroke:#000000;stroke-width:0.92955959;stroke-linecap:butt;stroke-linejoin:miter;stroke-miterlimit:4;stroke-dasharray:none;stroke-opacity:1"
       d="m 41.521332,149.10543 c 0,0 -8.800317,-20.15373 12.248864,-15.77173"
       id="path838"
       inkscape:connector-curvature="0"
       sodipodi:nodetypes="cc" />
    <path
       style="opacity:1;fill:none;stroke:#000000;stroke-width:0.92955959;stroke-linecap:butt;stroke-linejoin:miter;stroke-miterlimit:4;stroke-dasharray:none;stroke-opacity:1"
       d="m 44.777038,145.26007 c 0,0 -4.883897,-10.38429 6.462315,-8.6628"
       id="path836"
       inkscape:connector-curvature="0"
       sodipodi:nodetypes="cc" />
    <path
       style="opacity:1;fill:none;stroke:#000000;stroke-width:0.92955959;stroke-linecap:butt;stroke-linejoin:miter;stroke-miterlimit:4;stroke-dasharray:none;stroke-opacity:1"
       d="m 55.890802,130.51114 c -3.708252,-2.01249 3.242983,-26.54341 21.59693,-11.11146"
       id="path830"
       inkscape:connector-curvature="0"
       sodipodi:nodetypes="cc" />
    <path
       style="opacity:1;fill:none;stroke:#000000;stroke-width:0.92955959;stroke-linecap:butt;stroke-linejoin:miter;stroke-miterlimit:4;stroke-dasharray:none;stroke-opacity:1"
       d="m 77.487732,119.39968 c -1.62231,-5.99564 7.590418,-18.42282 17.664871,-7.25766"
       id="path826"
       inkscape:connector-curvature="0"
       sodipodi:nodetypes="cc" />
    <path
       style="opacity:1;fill:none;stroke:#000000;stroke-width:0.92955959;stroke-linecap:butt;stroke-linejoin:miter;stroke-miterlimit:4;stroke-dasharray:none;stroke-opacity:1"
       d="m 81.321971,117.99118 c 0,0 1.721494,-9.15522 9.311717,-3.83423"
       id="path828"
       inkscape:connector-curvature="0"
       sodipodi:nodetypes="cc" />
    <path
       style="opacity:1;fill:none;stroke:#000000;stroke-width:0.92955959;stroke-linecap:butt;stroke-linejoin:miter;stroke-miterlimit:4;stroke-dasharray:none;stroke-opacity:1"
       d="m 59.646793,128.47664 c 0,0 -2.034495,-16.51068 14.084953,-6.96422"
       id="path834"
       inkscape:connector-curvature="0"
       sodipodi:nodetypes="cc" />
    <path
       style="opacity:1;fill:none;stroke:#000000;stroke-width:0.92955959;stroke-linecap:butt;stroke-linejoin:miter;stroke-miterlimit:4;stroke-dasharray:none;stroke-opacity:1"
       d="m 63.089782,126.52042 c 0,0 0.625997,-6.41648 6.025228,-3.13"
       id="path832"
       inkscape:connector-curvature="0"
       sodipodi:nodetypes="cc" />
    <path
       style="opacity:1;fill:none;stroke:#000000;stroke-width:0.92955959;stroke-linecap:butt;stroke-linejoin:miter;stroke-miterlimit:4;stroke-dasharray:none;stroke-opacity:1"
       d="m 52.178446,196.8228 c -8.736513,17.34595 19.796028,30.25027 26.890829,7.19301"
       id="path876"
       inkscape:connector-curvature="0"
       sodipodi:nodetypes="cc" />
    <path
       style="opacity:1;fill:none;stroke:#000000;stroke-width:0.92955959;stroke-linecap:butt;stroke-linejoin:miter;stroke-miterlimit:4;stroke-dasharray:none;stroke-opacity:1"
       d="m 37.792408,174.63511 c -14.557659,3.84343 -13.671494,35.82692 14.386038,22.18769"
       id="path870"
       inkscape:connector-curvature="0"
       sodipodi:nodetypes="cc" />
    <path
       style="opacity:1;fill:none;stroke:#000000;stroke-width:0.92955959;stroke-linecap:butt;stroke-linejoin:miter;stroke-miterlimit:4;stroke-dasharray:none;stroke-opacity:1"
       d="m 37.792408,174.63511 c -16.73552,0.72245 -20.590725,-26.57624 2.770938,-23.81931"
       id="path847"
       inkscape:connector-curvature="0"
       sodipodi:nodetypes="cc" />
    <path
       style="opacity:1;fill:none;stroke:#000000;stroke-width:0.92955959;stroke-linecap:butt;stroke-linejoin:miter;stroke-miterlimit:4;stroke-dasharray:none;stroke-opacity:1"
       d="m 37.847738,171.86856 c -7.488665,1.12732 -18.842391,-15.45046 1.659926,-18.81251"
       id="path844"
       inkscape:connector-curvature="0"
       sodipodi:nodetypes="cc" />
    <path
       style="opacity:1;fill:none;stroke:#000000;stroke-width:0.92955959;stroke-linecap:butt;stroke-linejoin:miter;stroke-miterlimit:4;stroke-dasharray:none;stroke-opacity:1"
       d="m 37.294429,167.9954 c -5.208747,0.15362 -9.115198,-9.23774 0.940624,-10.12556"
       id="path842"
       inkscape:connector-curvature="0"
       sodipodi:nodetypes="cc" />
    <path
       style="opacity:1;fill:none;stroke:#000000;stroke-width:0.92955959;stroke-linecap:butt;stroke-linejoin:miter;stroke-miterlimit:4;stroke-dasharray:none;stroke-opacity:1"
       d="m 38.013732,177.89962 c -6.4175,1.35449 -12.618903,23.75923 11.176845,16.37796"
       id="path874"
       inkscape:connector-curvature="0"
       sodipodi:nodetypes="cc" />
    <path
       style="opacity:1;fill:none;stroke:#000000;stroke-width:0.92955959;stroke-linecap:butt;stroke-linejoin:miter;stroke-miterlimit:4;stroke-dasharray:none;stroke-opacity:1"
       d="m 40.116306,182.10479 c -1.660383,-1.15048 -9.90685,11.79258 5.643755,8.96361"
       id="path872"
       inkscape:connector-curvature="0"
       sodipodi:nodetypes="cc" />
    <path
       style="opacity:1;fill:none;stroke:#000000;stroke-width:0.92955959;stroke-linecap:butt;stroke-linejoin:miter;stroke-miterlimit:4;stroke-dasharray:none;stroke-opacity:1"
       d="m 55.608963,199.1467 c -3.794816,5.92169 7.668365,23.67306 19.587147,4.97979"
       id="path882"
       inkscape:connector-curvature="0"
       sodipodi:nodetypes="cc" />
    <path
       style="opacity:1;fill:none;stroke:#000000;stroke-width:0.92955959;stroke-linecap:butt;stroke-linejoin:miter;stroke-miterlimit:4;stroke-dasharray:none;stroke-opacity:1"
       d="m 59.482129,201.02794 c -0.104931,1.04928 1.772545,11.59994 10.402212,2.87722"
       id="path880"
       inkscape:connector-curvature="0"
       sodipodi:nodetypes="cc" />
    <path
       style="opacity:1;fill:none;stroke:#000000;stroke-width:0.92955959;stroke-linecap:butt;stroke-linejoin:miter;stroke-miterlimit:4;stroke-dasharray:none;stroke-opacity:1"
       d="m 79.069275,203.3961 c -0.4408,12.26082 26.392845,21.76513 25.562885,-7.41432"
       id="path888"
       inkscape:connector-curvature="0"
       sodipodi:nodetypes="cc" />
    <path
       style="opacity:1;fill:none;stroke:#000000;stroke-width:0.92955959;stroke-linecap:butt;stroke-linejoin:miter;stroke-miterlimit:4;stroke-dasharray:none;stroke-opacity:1"
       d="m 82.94244,203.50678 c -3.646714,2.07481 16.968454,16.07951 15.824642,-4.86914"
       id="path886"
       inkscape:connector-curvature="0"
       sodipodi:nodetypes="cc" />
    <path
       style="opacity:1;fill:none;stroke:#000000;stroke-width:0.92955959;stroke-linecap:butt;stroke-linejoin:miter;stroke-miterlimit:4;stroke-dasharray:none;stroke-opacity:1"
       d="m 87.258251,202.73213 c 0.442648,0.11068 5.533094,6.75038 8.078317,-2.65586"
       id="path884"
       inkscape:connector-curvature="0"
       sodipodi:nodetypes="cc" />
    <path
       style="opacity:1;fill:none;stroke:#000000;stroke-width:0.92955959;stroke-linecap:butt;stroke-linejoin:miter;stroke-miterlimit:4;stroke-dasharray:none;stroke-opacity:1"
       d="m 120.99459,180.43447 c 7.42451,4.92681 24.6486,-6.42727 9.53244,-20.3514"
       id="path854"
       inkscape:connector-curvature="0"
       sodipodi:nodetypes="cc" />
    <path
       style="opacity:1;fill:none;stroke:#000000;stroke-width:0.92955959;stroke-linecap:butt;stroke-linejoin:miter;stroke-miterlimit:4;stroke-dasharray:none;stroke-opacity:1"
       d="m 104.63216,195.98178 c 4.84169,6.61469 27.55192,3.55493 16.36243,-16.16701"
       id="path894"
       inkscape:connector-curvature="0"
       sodipodi:nodetypes="cc" />
    <path
       style="opacity:1;fill:none;stroke:#000000;stroke-width:0.92955959;stroke-linecap:butt;stroke-linejoin:miter;stroke-miterlimit:4;stroke-dasharray:none;stroke-opacity:1"
       d="m 108.23989,193.35197 c 0,0 13.92845,5.16448 10.32896,-9.70296"
       id="path892"
       inkscape:connector-curvature="0"
       sodipodi:nodetypes="cc" />
    <path
       style="opacity:1;fill:none;stroke:#000000;stroke-width:0.92955959;stroke-linecap:butt;stroke-linejoin:miter;stroke-miterlimit:4;stroke-dasharray:none;stroke-opacity:1"
       d="m 111.60461,190.84799 c 0.31301,-0.0782 6.49475,1.56499 3.83426,-3.99075"
       id="path890"
       inkscape:connector-curvature="0"
       sodipodi:nodetypes="cc" />
    <path
       style="opacity:1;fill:none;stroke:#000000;stroke-width:0.92955959;stroke-linecap:butt;stroke-linejoin:miter;stroke-miterlimit:4;stroke-dasharray:none;stroke-opacity:1"
       d="m 122.83604,177.23567 c 5.77147,2.68676 16.27803,-5.74517 5.80974,-12.22814"
       id="path852"
       inkscape:connector-curvature="0"
       sodipodi:nodetypes="cc" />
    <path
       style="opacity:1;fill:none;stroke:#000000;stroke-width:0.92955959;stroke-linecap:butt;stroke-linejoin:miter;stroke-miterlimit:4;stroke-dasharray:none;stroke-opacity:1"
       d="m 124.75058,173.62676 c 0.65788,0.29238 7.91631,0.52747 2.89524,-5.47749"
       id="path850"
       inkscape:connector-curvature="0"
       sodipodi:nodetypes="cc" />
    <g
       id="g865"
       transform="matrix(1.1710986,0,0,1.1710986,-41.999624,-28.566763)"
       style="opacity:1;fill:none;stroke-width:0.79374999;stroke-miterlimit:4;stroke-dasharray:none">
      <path
         inkscape:connector-curvature="0"
         id="path856"
         d="m 146.78581,161.35518 c 0,0 6.6269,10.02814 14.01294,14.18633 0,0 7.04651,-9.16949 6.01919,-18.73691 0,0 6.25578,5.19923 20.22062,1.992 0,0 0.71828,-11.26708 -7.90116,-19.21835 0,0 3.87541,0.20045 17.10525,-11.35896 0,0 -6.81537,-9.82215 -18.30796,-9.95579 0,0 5.67948,-10.0226 5.21176,-18.976129 0,0 -14.03165,-0.0668 -19.77795,5.078119 0,0 0.20045,-5.87993 -6.68174,-16.236625 0,0 -13.96483,11.091686 -11.62622,15.635265"
         style="fill:none;stroke:#000000;stroke-width:0.79374999;stroke-linecap:butt;stroke-linejoin:miter;stroke-miterlimit:4;stroke-dasharray:none;stroke-opacity:1"
         sodipodi:nodetypes="ccccccccccc" />
    </g>
    <path
       style="opacity:1;fill:none;stroke:#000000;stroke-width:0.92955959;stroke-linecap:butt;stroke-linejoin:miter;stroke-miterlimit:4;stroke-dasharray:none;stroke-opacity:1"
       d="m 133.73623,106.41206 c 22.60805,-0.54747 30.07851,31.99662 1.32794,36.73974"
       id="path873"
       inkscape:connector-curvature="0"
       sodipodi:nodetypes="cc" />
    <path
       style="opacity:1;fill:none;stroke:#000000;stroke-width:0.92955959;stroke-linecap:butt;stroke-linejoin:miter;stroke-miterlimit:4;stroke-dasharray:none;stroke-opacity:1"
       d="m 135.78378,138.10137 c 24.41163,-2.50551 11.46953,-30.42854 -0.81766,-27.24926"
       id="path871"
       inkscape:connector-curvature="0"
       sodipodi:nodetypes="cc" />
    <path
       style="opacity:1;fill:none;stroke:#000000;stroke-width:0.92955959;stroke-linecap:butt;stroke-linejoin:miter;stroke-miterlimit:4;stroke-dasharray:none;stroke-opacity:1"
       d="m 136.33154,133.09339 c 10.60555,-0.53727 12.30264,-15.3352 -0.39126,-17.84096"
       id="path869"
       inkscape:connector-curvature="0"
       sodipodi:nodetypes="cc" />
    <path
       style="opacity:1;fill:none;stroke:#000000;stroke-width:0.92955959;stroke-linecap:butt;stroke-linejoin:miter;stroke-miterlimit:4;stroke-dasharray:none;stroke-opacity:1"
       d="m 136.48803,128.0854 c 0,0 8.45098,-3.83425 0.0782,-7.66847"
       id="path867"
       inkscape:connector-curvature="0"
       sodipodi:nodetypes="cc" />
    <path
       style="opacity:1;fill:none;stroke:#000000;stroke-width:0.92955959;stroke-linecap:butt;stroke-linejoin:miter;stroke-miterlimit:4;stroke-dasharray:none;stroke-opacity:1"
       d="m 138.01391,132.97601 0.313,4.7341"
       id="path875"
       inkscape:connector-curvature="0"
       sodipodi:nodetypes="cc" />
    <path
       style="opacity:1;fill:none;stroke:#000000;stroke-width:0.92955959;stroke-linecap:butt;stroke-linejoin:miter;stroke-miterlimit:4;stroke-dasharray:none;stroke-opacity:1"
       d="m 139.85278,132.4674 0.82162,4.46023"
       id="path877"
       inkscape:connector-curvature="0"
       sodipodi:nodetypes="cc" />
    <path
       style="opacity:1;fill:none;stroke:#000000;stroke-width:0.92955959;stroke-linecap:butt;stroke-linejoin:miter;stroke-miterlimit:4;stroke-dasharray:none;stroke-opacity:1"
       d="m 141.30039,131.64577 1.95624,4.42111"
       id="path879"
       inkscape:connector-curvature="0"
       sodipodi:nodetypes="cc" />
    <path
       style="opacity:1;fill:none;stroke:#000000;stroke-width:0.92955959;stroke-linecap:butt;stroke-linejoin:miter;stroke-miterlimit:4;stroke-dasharray:none;stroke-opacity:1"
       d="m 142.98277,130.19814 3.36473,3.79512"
       id="path881"
       inkscape:connector-curvature="0"
       sodipodi:nodetypes="cc" />
    <path
       style="opacity:1;fill:none;stroke:#000000;stroke-width:0.92955959;stroke-linecap:butt;stroke-linejoin:miter;stroke-miterlimit:4;stroke-dasharray:none;stroke-opacity:1"
       d="m 144.35214,128.43751 4.18637,2.38663"
       id="path883"
       inkscape:connector-curvature="0"
       sodipodi:nodetypes="cc" />
    <path
       style="opacity:1;fill:none;stroke:#000000;stroke-width:0.92955959;stroke-linecap:butt;stroke-linejoin:miter;stroke-miterlimit:4;stroke-dasharray:none;stroke-opacity:1"
       d="m 144.50863,127.18553 4.57762,1.13463"
       id="path885"
       inkscape:connector-curvature="0"
       sodipodi:nodetypes="cc" />
    <path
       style="opacity:1;fill:none;stroke:#000000;stroke-width:0.92955959;stroke-linecap:butt;stroke-linejoin:miter;stroke-miterlimit:4;stroke-dasharray:none;stroke-opacity:1"
       d="m 145.17375,125.26841 4.26462,0.11738"
       id="path887"
       inkscape:connector-curvature="0"
       sodipodi:nodetypes="cc" />
    <path
       style="opacity:1;fill:none;stroke:#000000;stroke-width:0.92955959;stroke-linecap:butt;stroke-linejoin:miter;stroke-miterlimit:4;stroke-dasharray:none;stroke-opacity:1"
       d="m 144.97813,123.39042 c 0.19562,-0.0782 4.18637,-0.50862 4.18637,-0.50862"
       id="path889"
       inkscape:connector-curvature="0"
       sodipodi:nodetypes="cc" />
    <path
       style="opacity:1;fill:none;stroke:#000000;stroke-width:0.92955959;stroke-linecap:butt;stroke-linejoin:miter;stroke-miterlimit:4;stroke-dasharray:none;stroke-opacity:1"
       d="m 144.58689,121.59068 3.67774,-1.72148"
       id="path891"
       inkscape:connector-curvature="0"
       sodipodi:nodetypes="cc" />
    <path
       style="opacity:1;fill:none;stroke:#000000;stroke-width:0.92955959;stroke-linecap:butt;stroke-linejoin:miter;stroke-miterlimit:4;stroke-dasharray:none;stroke-opacity:1"
       d="m 143.33488,119.71266 3.52125,-2.30835"
       id="path893"
       inkscape:connector-curvature="0"
       sodipodi:nodetypes="cc" />
    <path
       style="opacity:1;fill:none;stroke:#000000;stroke-width:0.92955959;stroke-linecap:butt;stroke-linejoin:miter;stroke-miterlimit:4;stroke-dasharray:none;stroke-opacity:1"
       d="m 142.2394,118.06945 2.81698,-3.20825"
       id="path895"
       inkscape:connector-curvature="0"
       sodipodi:nodetypes="cc" />
    <path
       style="opacity:1;fill:none;stroke:#000000;stroke-width:0.92955959;stroke-linecap:butt;stroke-linejoin:miter;stroke-miterlimit:4;stroke-dasharray:none;stroke-opacity:1"
       d="m 140.47877,116.77832 2.19099,-3.95162"
       id="path897"
       inkscape:connector-curvature="0"
       sodipodi:nodetypes="cc" />
    <path
       style="opacity:1;fill:none;stroke:#000000;stroke-width:0.92955959;stroke-linecap:butt;stroke-linejoin:miter;stroke-miterlimit:4;stroke-dasharray:none;stroke-opacity:1"
       d="m 138.83552,115.91757 0.97813,-4.65586"
       id="path899"
       inkscape:connector-curvature="0"
       sodipodi:nodetypes="cc" />
    <path
       style="opacity:1;fill:none;stroke:#000000;stroke-width:0.92955959;stroke-linecap:butt;stroke-linejoin:miter;stroke-miterlimit:4;stroke-dasharray:none;stroke-opacity:1"
       d="m 136.99666,115.40895 c 0,-0.23475 0.0782,-4.81236 0.0782,-4.81236"
       id="path901"
       inkscape:connector-curvature="0"
       sodipodi:nodetypes="cc" />
    <path
       style="opacity:1;fill:none;stroke:#000000;stroke-width:0.92955959;stroke-linecap:butt;stroke-linejoin:miter;stroke-miterlimit:4;stroke-dasharray:none;stroke-opacity:1"
       d="m 131.46766,99.163717 c 0,0 -4.92445,-8.631619 10.34689,-19.144493 0,0 9.42472,16.450976 2.61699,28.892686 0,0 2.85496,-14.082652 23.59115,-17.056142 0,0 0.8781,20.810502 -15.24134,26.053242 0,0 11.32885,-11.65529 30.65653,2.27317 0,0 -17.20708,16.83712 -30.58778,10.42064 8.9096,1.78327 17.80279,5.28673 19.35656,24.59287 0,0 -22.65567,-1.13789 -27.46566,-14.16321 0,0 12.56146,7.9456 0.3545,30.55979 0,0 -8.76396,-6.65123 -12.1287,-18.07571"
       id="path910"
       inkscape:connector-curvature="0"
       sodipodi:nodetypes="ccccccccccc" />
    <path
       style="opacity:1;fill:none;fill-rule:evenodd;stroke:#000000;stroke-width:0.92955959;stroke-miterlimit:4;stroke-dasharray:none"
       d="m 139.78529,98.593504 c -0.45685,0.227205 0.10342,0.685821 0.40534,0.707391 0.81842,0.05847 1.2401,-0.82144 1.11332,-1.46264 -0.2268,-1.14695 -1.28563,-2.276205 -2.40271,-1.97555 -1.63946,0.441225 -2.3522,2.200362 -1.82127,3.632666 0.70768,1.909029 3.10911,2.719669 5.06408,2.026449 2.46009,-0.87236 3.48903,-3.593754 2.52919,-5.802715 -1.1625,-2.675351 -4.60681,-3.782472 -7.39344,-2.685973 -4.72252,1.734842 -4.30023,6.87136 -2.90514,9.853998 0.58443,1.24949 2.10593,3.127 3.361,3.82469"
       id="path922"
       inkscape:connector-curvature="0"
       sodipodi:nodetypes="cccccccccc" />
    <path
       style="opacity:1;fill:none;fill-rule:evenodd;stroke:#000000;stroke-width:0.92955959;stroke-miterlimit:4;stroke-dasharray:none"
       d="m 155.01046,107.81473 c -0.49874,-0.10762 -0.34728,0.60034 -0.12488,0.80569 0.60284,0.5566 1.48158,0.13233 1.78277,-0.44778 0.53874,-1.03765 0.41644,-2.5808 -0.64396,-3.04321 -1.55623,-0.67866 -3.21117,0.25078 -3.69042,1.70119 -0.63876,1.93318 0.73136,4.06551 2.6914,4.74424 2.46649,0.85409 4.96908,-0.62975 5.59806,-2.95465 0.76177,-2.81579 -1.23803,-5.83071 -4.09954,-6.71352 -4.7724,-1.59249 -7.64878,2.68405 -8.42064,5.88509 -0.32335,1.34099 -0.19114,2.79813 0.3539,4.12666"
       id="path922-3"
       inkscape:connector-curvature="0"
       sodipodi:nodetypes="cccccccccc" />
    <path
       style="opacity:1;fill:none;fill-rule:evenodd;stroke:#000000;stroke-width:0.92955959;stroke-miterlimit:4;stroke-dasharray:none"
       d="m 160.44248,124.56565 c -0.0988,-0.50058 -0.68884,-0.0809 -0.78918,0.20471 -0.27196,0.77409 0.46579,1.41268 1.11775,1.45927 1.16619,0.0832 2.53445,-0.64071 2.53867,-1.79754 0.006,-1.69777 -1.50311,-2.8487 -3.02468,-2.71377 -2.028,0.17983 -3.44257,2.28295 -3.28877,4.35147 0.19357,2.60301 2.54784,4.3124 4.93162,3.96831 2.88708,-0.41675 4.86234,-3.44782 4.53854,-6.42485 -0.42965,-5.01272 -5.49601,-5.95828 -8.7408,-5.3981 -1.35929,0.23468 -2.97666,2.20627 -3.9803,3.23327"
       id="path922-6"
       inkscape:connector-curvature="0"
       sodipodi:nodetypes="cccccccccc" />
    <path
       style="opacity:1;fill:none;fill-rule:evenodd;stroke:#000000;stroke-width:0.92955959;stroke-miterlimit:4;stroke-dasharray:none"
       d="m 155.49399,141.36684 c 0.20569,-0.46693 -0.51832,-0.46085 -0.76416,-0.28421 -0.6663,0.47878 -0.42732,1.42477 0.0805,1.83635 0.90823,0.73628 2.44449,0.92653 3.11055,-0.0193 0.9775,-1.38815 0.39954,-3.19606 -0.92498,-3.95696 -1.76541,-1.01419 -4.12955,-0.10048 -5.18826,1.68323 -1.33225,2.24459 -0.38155,4.99428 1.76957,6.07758 2.60529,1.31201 5.96055,-0.0412 7.40031,-2.66699 2.51893,-4.35509 -1.09245,-8.03209 -4.07304,-9.43142 -1.24866,-0.5862 -4.94357,-0.25151 -6.35449,0.0155"
       id="path922-7"
       inkscape:connector-curvature="0"
       sodipodi:nodetypes="cccccccccc" />
    <path
       style="opacity:1;fill:none;fill-rule:evenodd;stroke:#000000;stroke-width:0.92955959;stroke-miterlimit:4;stroke-dasharray:none"
       d="m 140.52595,149.27779 c 0.43711,-0.26323 -0.1581,-0.67529 -0.46092,-0.6725 -0.82045,0.006 -1.17002,0.91847 -0.99209,1.54741 0.31829,1.125 1.46448,2.16547 2.55378,1.77596 1.59864,-0.5716 2.16766,-2.38235 1.52328,-3.76733 -0.85886,-1.84595 -3.3177,-2.4609 -5.2106,-1.61271 -2.38199,1.06731 -3.18881,3.86261 -2.05446,5.98727 1.37384,2.57322 4.89601,3.39983 7.58544,2.08282 4.56775,-2.10893 2.12926,-6.97354 0.49887,-9.83435 -0.68301,-1.19845 -3.27143,-2.22481 -4.57852,-2.81934"
       id="path922-5"
       inkscape:connector-curvature="0"
       sodipodi:nodetypes="cccccccccc" />
    <path
       style="display:inline;fill:none;stroke:#000000;stroke-width:0.92955959;stroke-linecap:butt;stroke-linejoin:miter;stroke-miterlimit:4;stroke-dasharray:none;stroke-opacity:1"
       d="m 47.530649,192.72831 c -15.933964,-14.24847 -18.16424,-56.3424 28.718771,-72.62563 40.87877,-14.19786 32.50974,-19.30186 31.81326,-19.99834 0,0 -4.90033,2.73018 -11.557884,2.94029 -9.929837,0.31338 -14.109398,-14.484871 -1.837756,-20.75128 32.08211,-16.382453 41.39093,31.02976 40.06514,30.09447 3.39301,-1.75771 5.96798,65.61584 -33.86252,84.9883 -32.028609,15.57783 -49.986224,-1.32162 -53.339011,-4.64781 z"
       id="path846"
       inkscape:connector-curvature="0"
       sodipodi:nodetypes="cscsscsc" />
  </g>
  <g
     inkscape:groupmode="layer"
     id="layer6"
     inkscape:label="Layer 6"
     style="display:inline"
     sodipodi:insensitive="true">
    <path
       style="fill:none;fill-opacity:0.39215686;stroke:#000000;stroke-width:0.92955959;stroke-linecap:butt;stroke-linejoin:miter;stroke-miterlimit:4;stroke-dasharray:none;stroke-opacity:1"
       d="m 103.77757,89.899343 c -0.14992,-0.131176 10.38472,5.270072 -1.252,9.389969 0,0 -7.704118,0.801428 -7.372133,-7.110882 0.331987,-7.912329 7.912323,-8.963617 7.912323,-8.963617 0,0 12.33881,-3.485846 19.91914,9.627582 7.58033,13.113425 6.37825,12.080715 9.58858,28.669855 1.48323,0.85872 -0.76805,41.56459 -19.40595,59.46979 -5.30928,5.10055 -22.205391,26.72765 -56.496308,11.58096 0,0 -17.214943,-10.17246 -12.989457,-29.7349 4.225487,-19.56242 20.657931,-35.05587 46.793342,-43.03735 9.258751,-3.55222 12.483523,-6.21013 17.701513,-11.64742 4.3566,-4.53968 5.28578,-7.50689 6.07068,-12.379184 -0.57396,-9.715828 -10.04859,-6.647249 -10.46973,-5.864803 z"
       id="path1212"
       inkscape:connector-curvature="0"
       sodipodi:nodetypes="ccscscscscscc" />
    <path
       style="fill:none;stroke:#000000;stroke-width:0.92955959;stroke-linecap:butt;stroke-linejoin:miter;stroke-miterlimit:4;stroke-dasharray:none;stroke-opacity:1"
       d="m 43.290517,163.21936 c 15.379237,3.63367 31.112165,6.65223 32.47364,34.66464"
       id="path1214"
       inkscape:connector-curvature="0"
       sodipodi:nodetypes="cc" />
    <path
       style="fill:none;stroke:#000000;stroke-width:0.92955959;stroke-linecap:butt;stroke-linejoin:miter;stroke-miterlimit:4;stroke-dasharray:none;stroke-opacity:1"
       d="m 45.246758,157.11587 c 26.691822,3.65018 34.981427,19.5206 35.055885,40.84637"
       id="path1216"
       inkscape:connector-curvature="0"
       sodipodi:nodetypes="cc" />
    <path
       style="fill:none;stroke:#000000;stroke-width:0.92955959;stroke-linecap:butt;stroke-linejoin:miter;stroke-miterlimit:4;stroke-dasharray:none;stroke-opacity:1"
       d="m 47.672501,152.02965 c 23.623496,3.66789 39.188892,15.71427 37.403375,45.22834"
       id="path1218"
       inkscape:connector-curvature="0"
       sodipodi:nodetypes="cc" />
    <path
       style="fill:none;stroke:#000000;stroke-width:0.92955959;stroke-linecap:butt;stroke-linejoin:miter;stroke-miterlimit:4;stroke-dasharray:none;stroke-opacity:1"
       d="m 60.348959,168.77508 c -3.059184,6.6015 -0.643795,15.93707 12.28521,12.98946"
       id="path1220"
       inkscape:connector-curvature="0"
       sodipodi:nodetypes="cc" />
    <path
       style="fill:none;stroke:#000000;stroke-width:0.92955959;stroke-linecap:butt;stroke-linejoin:miter;stroke-miterlimit:4;stroke-dasharray:none;stroke-opacity:1"
       d="m 55.810475,166.81884 c -4.349494,7.83926 -0.03922,24.18517 17.840939,18.93643"
       id="path1222"
       inkscape:connector-curvature="0"
       sodipodi:nodetypes="cc" />
    <path
       style="fill:none;stroke:#000000;stroke-width:0.92955959;stroke-linecap:butt;stroke-linejoin:miter;stroke-miterlimit:4;stroke-dasharray:none;stroke-opacity:1"
       d="m 50.763365,165.13646 c -0.132823,-0.16602 -5.380073,-0.33842 -4.968856,2.93438 0.437186,3.47949 8.355374,3.95228 8.37272,3.93204 -0.0097,-0.0134 -10.475587,-0.52986 -9.624716,4.36243 0.78879,4.53533 10.151876,1.37554 10.152904,1.36938 0,0 -7.849243,3.31779 -5.770919,7.55109 1.719622,3.50265 8.898032,-1.06805 9.194343,-1.64324 -0.01772,7.4e-4 -4.965227,6.49035 -1.5812,8.47944 5.153441,3.02915 9.361079,-4.01718 8.77543,-4.96099 0,0 0.153898,8.10334 3.095612,9.19712 7.160995,2.66261 5.659357,-10.29304 5.242731,-10.60284"
       id="path1224"
       inkscape:connector-curvature="0"
       sodipodi:nodetypes="cscscscscsc" />
    <path
       style="fill:none;stroke:#000000;stroke-width:0.92955959;stroke-linecap:butt;stroke-linejoin:miter;stroke-miterlimit:4;stroke-dasharray:none;stroke-opacity:1"
       d="m 59.409664,171.30164 5.090444,0.0552"
       id="path1226"
       inkscape:connector-curvature="0" />
    <path
       style="fill:none;stroke:#000000;stroke-width:0.92955959;stroke-linecap:butt;stroke-linejoin:miter;stroke-miterlimit:4;stroke-dasharray:none;stroke-opacity:1"
       d="m 59.464994,175.39613 6.750371,-2.26857"
       id="path1228"
       inkscape:connector-curvature="0" />
    <path
       style="fill:none;stroke:#000000;stroke-width:0.92955959;stroke-linecap:butt;stroke-linejoin:miter;stroke-miterlimit:4;stroke-dasharray:none;stroke-opacity:1"
       d="m 61.06959,179.37994 c 0.331987,-0.33196 6.141733,-5.42242 6.141733,-5.42242"
       id="path1230"
       inkscape:connector-curvature="0" />
    <path
       style="fill:none;stroke:#000000;stroke-width:0.92955959;stroke-linecap:butt;stroke-linejoin:miter;stroke-miterlimit:4;stroke-dasharray:none;stroke-opacity:1"
       d="m 68.095685,174.60469 -2.073619,7.43373"
       id="path1236"
       inkscape:connector-curvature="0" />
    <path
       style="fill:none;stroke:#000000;stroke-width:0.92955959;stroke-linecap:butt;stroke-linejoin:miter;stroke-miterlimit:4;stroke-dasharray:none;stroke-opacity:1"
       d="m 69.152055,182.1558 0.195625,-6.10349"
       id="path1238"
       inkscape:connector-curvature="0" />
    <path
       style="fill:none;stroke:#000000;stroke-width:0.92955959;stroke-linecap:butt;stroke-linejoin:miter;stroke-miterlimit:4;stroke-dasharray:none;stroke-opacity:1"
       d="m 75.685909,195.41912 4.460234,-0.43037"
       id="path1240"
       inkscape:connector-curvature="0" />
    <path
       style="fill:none;stroke:#000000;stroke-width:0.92955959;stroke-linecap:butt;stroke-linejoin:miter;stroke-miterlimit:4;stroke-dasharray:none;stroke-opacity:1"
       d="m 75.685909,192.87601 4.538485,-0.35214"
       id="path1242"
       inkscape:connector-curvature="0" />
    <path
       style="fill:none;stroke:#000000;stroke-width:0.92955959;stroke-linecap:butt;stroke-linejoin:miter;stroke-miterlimit:4;stroke-dasharray:none;stroke-opacity:1"
       d="m 75.216411,189.70688 4.421109,-0.50861"
       id="path1244"
       inkscape:connector-curvature="0" />
    <path
       style="fill:none;stroke:#000000;stroke-width:0.92955959;stroke-linecap:butt;stroke-linejoin:miter;stroke-miterlimit:4;stroke-dasharray:none;stroke-opacity:1"
       d="m 74.590411,186.57691 4.421112,-1.05639"
       id="path1246"
       inkscape:connector-curvature="0" />
    <path
       style="fill:none;stroke:#000000;stroke-width:0.92955959;stroke-linecap:butt;stroke-linejoin:miter;stroke-miterlimit:4;stroke-dasharray:none;stroke-opacity:1"
       d="m 73.416667,183.40778 c 0.195622,0 4.694984,-1.0955 4.694984,-1.0955"
       id="path1248"
       inkscape:connector-curvature="0" />
    <path
       style="fill:none;stroke:#000000;stroke-width:0.92955959;stroke-linecap:butt;stroke-linejoin:miter;stroke-miterlimit:4;stroke-dasharray:none;stroke-opacity:1"
       d="m 77.172654,179.22143 -4.616736,1.60411"
       id="path1250"
       inkscape:connector-curvature="0" />
    <path
       style="fill:none;stroke:#000000;stroke-width:0.92955959;stroke-linecap:butt;stroke-linejoin:miter;stroke-miterlimit:4;stroke-dasharray:none;stroke-opacity:1"
       d="m 70.834424,178.20418 c 0.469498,0 5.086234,-2.504 5.086234,-2.504"
       id="path1252"
       inkscape:connector-curvature="0" />
    <path
       style="fill:none;stroke:#000000;stroke-width:0.92955959;stroke-linecap:butt;stroke-linejoin:miter;stroke-miterlimit:4;stroke-dasharray:none;stroke-opacity:1"
       d="m 69.34768,176.05231 4.65586,-3.16911"
       id="path1254"
       inkscape:connector-curvature="0" />
    <path
       style="fill:none;stroke:#000000;stroke-width:0.92955959;stroke-linecap:butt;stroke-linejoin:miter;stroke-miterlimit:4;stroke-dasharray:none;stroke-opacity:1"
       d="m 67.211323,173.95752 4.718597,-4.28257"
       id="path1256"
       inkscape:connector-curvature="0" />
    <path
       style="fill:none;stroke:#000000;stroke-width:0.92955959;stroke-linecap:butt;stroke-linejoin:miter;stroke-miterlimit:4;stroke-dasharray:none;stroke-opacity:1"
       d="m 65.081083,171.55062 c 0.110657,-0.0553 4.066822,-4.42646 4.066822,-4.42646"
       id="path1258"
       inkscape:connector-curvature="0" />
    <path
       style="fill:none;stroke:#000000;stroke-width:0.92955959;stroke-linecap:butt;stroke-linejoin:miter;stroke-miterlimit:4;stroke-dasharray:none;stroke-opacity:1"
       d="m 62.369868,169.89071 c 0.05533,-0.11067 4.260481,-4.95212 4.260481,-4.95212"
       id="path1260"
       inkscape:connector-curvature="0" />
    <path
       style="fill:none;stroke:#000000;stroke-width:0.92955959;stroke-linecap:butt;stroke-linejoin:miter;stroke-miterlimit:4;stroke-dasharray:none;stroke-opacity:1"
       d="m 59.990637,168.09244 3.23686,-5.22877"
       id="path1262"
       inkscape:connector-curvature="0" />
    <path
       style="fill:none;stroke:#000000;stroke-width:0.92955959;stroke-linecap:butt;stroke-linejoin:miter;stroke-miterlimit:4;stroke-dasharray:none;stroke-opacity:1"
       d="m 57.224092,166.93049 2.683549,-5.78207"
       id="path1264"
       inkscape:connector-curvature="0" />
    <path
       style="fill:none;stroke:#000000;stroke-width:0.92955959;stroke-linecap:butt;stroke-linejoin:miter;stroke-miterlimit:4;stroke-dasharray:none;stroke-opacity:1"
       d="m 54.734199,165.93454 2.07491,-6.0864"
       id="path1266"
       inkscape:connector-curvature="0" />
    <path
       style="fill:none;stroke:#000000;stroke-width:0.92955959;stroke-linecap:butt;stroke-linejoin:miter;stroke-miterlimit:4;stroke-dasharray:none;stroke-opacity:1"
       d="m 52.54863,165.49189 c 0.02767,-0.19365 1.07895,-6.47371 1.07895,-6.47371"
       id="path1268"
       inkscape:connector-curvature="0" />
    <path
       style="fill:none;stroke:#000000;stroke-width:0.92955959;stroke-linecap:butt;stroke-linejoin:miter;stroke-miterlimit:4;stroke-dasharray:none;stroke-opacity:1"
       d="m 49.505427,164.6066 c 0,-0.13833 0.387316,-6.58439 0.387316,-6.58439"
       id="path1270"
       inkscape:connector-curvature="0" />
    <path
       style="fill:none;stroke:#000000;stroke-width:0.92955959;stroke-linecap:butt;stroke-linejoin:miter;stroke-miterlimit:4;stroke-dasharray:none;stroke-opacity:1"
       d="m 46.323899,163.61065 c 0.138327,-0.249 0.442649,-6.00341 0.442649,-6.00341"
       id="path1272"
       inkscape:connector-curvature="0" />
    <path
       style="fill:none;stroke:#000000;stroke-width:0.92955959;stroke-linecap:butt;stroke-linejoin:miter;stroke-miterlimit:4;stroke-dasharray:none;stroke-opacity:1"
       d="M 77.392213,166.54317 C 89.904524,161.0671 94.193809,152.13735 99.635246,143.69151"
       id="path1274"
       inkscape:connector-curvature="0"
       sodipodi:nodetypes="cc" />
    <path
       style="fill:none;stroke:#000000;stroke-width:0.92955959;stroke-linecap:butt;stroke-linejoin:miter;stroke-miterlimit:4;stroke-dasharray:none;stroke-opacity:1"
       d="m 77.392213,166.54317 c 4.248177,-10.01582 13.24156,-16.43681 22.243033,-22.85166"
       id="path1276"
       inkscape:connector-curvature="0"
       sodipodi:nodetypes="cc" />
    <path
       style="fill:none;stroke:#000000;stroke-width:0.92955959;stroke-linecap:butt;stroke-linejoin:miter;stroke-miterlimit:4;stroke-dasharray:none;stroke-opacity:1"
       d="m 60.848266,154.4257 c -0.580394,-0.40976 0.164246,-10.82089 8.963612,-13.05808 8.81911,-2.24221 16.044421,8.37529 16.377951,9.95955 1.573398,-17.35012 15.644981,-21.19589 25.452231,-21.46838 -1.02595,9.06955 -1.79729,19.89778 -16.156636,28.88273 0.201642,-1.41151 10.480346,1.53285 10.734196,8.74228 0.42115,11.96098 -20.570556,16.3759 -21.468396,14.93936"
       id="path1288"
       inkscape:connector-curvature="0"
       sodipodi:nodetypes="cscccsc" />
    <path
       style="fill:none;stroke:#000000;stroke-width:0.92955959;stroke-linecap:butt;stroke-linejoin:miter;stroke-miterlimit:4;stroke-dasharray:none;stroke-opacity:1"
       d="m 85.08321,186.96028 c 21.07584,-2.79658 28.67809,-13.2001 27.5548,-20.47244 -1.12329,-7.27233 -5.55518,-7.71995 -8.54782,-10.37536 13.41487,-7.82525 10.21872,-20.10567 10.42906,-31.01215 -29.105264,3.47434 -25.117749,10.7671 -28.993393,17.15257 -4.589738,-3.02 -8.14583,-8.33264 -15.05001,-6.19706 -15.131776,4.68051 -13.205784,14.33391 -13.27942,17.15259"
       id="path1290"
       inkscape:connector-curvature="0"
       sodipodi:nodetypes="czcccsc" />
    <path
       style="fill:none;stroke:#000000;stroke-width:0.92955959;stroke-linecap:butt;stroke-linejoin:miter;stroke-miterlimit:4;stroke-dasharray:none;stroke-opacity:1"
       d="m 113.08066,90.684495 c 4.87071,4.598118 11.00248,22.196515 1.43859,34.415835"
       id="path1292"
       inkscape:connector-curvature="0"
       sodipodi:nodetypes="cc" />
    <path
       style="fill:none;stroke:#000000;stroke-width:0.92955959;stroke-linecap:butt;stroke-linejoin:miter;stroke-miterlimit:4;stroke-dasharray:none;stroke-opacity:1"
       d="m 111.91554,125.2291 c 3.59423,-7.97802 1.58756,-14.44815 -0.0782,-21.01004"
       id="path1294"
       inkscape:connector-curvature="0"
       sodipodi:nodetypes="cc" />
    <path
       style="fill:none;stroke:#000000;stroke-width:0.92955959;stroke-linecap:butt;stroke-linejoin:miter;stroke-miterlimit:4;stroke-dasharray:none;stroke-opacity:1"
       d="m 108.51168,125.73773 c 1.8949,-5.52966 1.53441,-11.0593 -0.74338,-16.58894"
       id="path1296"
       inkscape:connector-curvature="0"
       sodipodi:nodetypes="cc" />
    <path
       style="fill:none;stroke:#000000;stroke-width:0.92955959;stroke-linecap:butt;stroke-linejoin:miter;stroke-miterlimit:4;stroke-dasharray:none;stroke-opacity:1"
       d="m 104.24706,126.40285 c 0.97125,-5.17496 -0.38388,-8.85441 -2.30837,-12.16783"
       id="path1298"
       inkscape:connector-curvature="0"
       sodipodi:nodetypes="cc" />
    <path
       style="fill:none;stroke:#000000;stroke-width:0.92955959;stroke-linecap:butt;stroke-linejoin:miter;stroke-miterlimit:4;stroke-dasharray:none;stroke-opacity:1"
       d="m 100.6867,127.30272 c 0.19955,-3.67019 -0.42129,-7.1646 -3.129995,-10.21159"
       id="path1300"
       inkscape:connector-curvature="0"
       sodipodi:nodetypes="cc" />
    <path
       style="fill:none;stroke:#000000;stroke-width:0.92955959;stroke-linecap:butt;stroke-linejoin:miter;stroke-miterlimit:4;stroke-dasharray:none;stroke-opacity:1"
       d="m 96.148213,128.75034 c -0.04398,-3.50935 -1.866389,-6.33466 -4.616732,-8.80309"
       id="path1302"
       inkscape:connector-curvature="0"
       sodipodi:nodetypes="cc" />
    <path
       style="fill:none;stroke:#000000;stroke-width:0.92955959;stroke-linecap:butt;stroke-linejoin:miter;stroke-miterlimit:4;stroke-dasharray:none;stroke-opacity:1"
       d="m 90.788108,132.15421 c -0.04853,-5.16384 -2.620458,-7.96195 -5.986105,-10.01597"
       id="path1304"
       inkscape:connector-curvature="0"
       sodipodi:nodetypes="cc" />
    <path
       style="fill:none;stroke:#000000;stroke-width:0.92955959;stroke-linecap:butt;stroke-linejoin:miter;stroke-miterlimit:4;stroke-dasharray:none;stroke-opacity:1"
       d="m 87.501618,136.69269 c -0.990629,-6.05617 -5.074145,-9.19128 -9.781216,-11.73746"
       id="path1306"
       inkscape:connector-curvature="0"
       sodipodi:nodetypes="cc" />
    <path
       style="fill:none;stroke:#000000;stroke-width:0.92955959;stroke-linecap:butt;stroke-linejoin:miter;stroke-miterlimit:4;stroke-dasharray:none;stroke-opacity:1"
       d="m 85.525857,142.2529 c -3.739608,-5.51763 -6.88358,-11.53162 -14.221935,-14.0503"
       id="path1308"
       inkscape:connector-curvature="0"
       sodipodi:nodetypes="cc" />
    <path
       style="fill:none;stroke:#000000;stroke-width:0.92955959;stroke-linecap:butt;stroke-linejoin:miter;stroke-miterlimit:4;stroke-dasharray:none;stroke-opacity:1"
       d="m 73.729663,135.63632 c -1.519785,-1.87314 -4.717033,-3.02738 -7.62935,-4.30374"
       id="path1310"
       inkscape:connector-curvature="0"
       sodipodi:nodetypes="cc" />
    <path
       style="fill:none;stroke:#000000;stroke-width:0.92955959;stroke-linecap:butt;stroke-linejoin:miter;stroke-miterlimit:4;stroke-dasharray:none;stroke-opacity:1"
       d="m 67.469685,136.77094 c -0.934583,-1.0744 -2.933175,-1.8448 -5.320981,-2.50399"
       id="path1312"
       inkscape:connector-curvature="0"
       sodipodi:nodetypes="cc" />
    <path
       style="fill:none;stroke:#000000;stroke-width:0.92955959;stroke-linecap:butt;stroke-linejoin:miter;stroke-miterlimit:4;stroke-dasharray:none;stroke-opacity:1"
       d="m 62.657328,139.31406 c -1.23267,-1.4829 -3.021095,-1.57641 -5.086234,-0.97813"
       id="path1314"
       inkscape:connector-curvature="0"
       sodipodi:nodetypes="cc" />
    <path
       style="fill:none;stroke:#000000;stroke-width:0.92955959;stroke-linecap:butt;stroke-linejoin:miter;stroke-miterlimit:4;stroke-dasharray:none;stroke-opacity:1"
       d="m 59.018714,143.34391 c -1.548009,-1.1583 -3.294935,-1.12307 -5.047108,-1.05637"
       id="path1316"
       inkscape:connector-curvature="0"
       sodipodi:nodetypes="cc" />
    <path
       style="fill:none;stroke:#000000;stroke-width:0.92955959;stroke-linecap:butt;stroke-linejoin:miter;stroke-miterlimit:4;stroke-dasharray:none;stroke-opacity:1"
       d="m 57.258093,148.07803 c -2.493799,-1.14153 -4.834477,-1.2112 -7.120726,-0.89987"
       id="path1318"
       inkscape:connector-curvature="0"
       sodipodi:nodetypes="cc" />
    <path
       style="fill:none;stroke:#000000;stroke-width:0.92955959;stroke-linecap:butt;stroke-linejoin:miter;stroke-miterlimit:4;stroke-dasharray:none;stroke-opacity:1"
       d="m 86.171374,192.95425 5.477476,2.0345"
       id="path1320"
       inkscape:connector-curvature="0" />
    <path
       style="fill:none;stroke:#000000;stroke-width:0.92955959;stroke-linecap:butt;stroke-linejoin:miter;stroke-miterlimit:4;stroke-dasharray:none;stroke-opacity:1"
       d="m 86.484373,187.78978 c 0.312997,0.0782 12.441707,4.53848 12.441707,4.53848"
       id="path1322"
       inkscape:connector-curvature="0" />
    <path
       style="fill:none;stroke:#000000;stroke-width:0.92955959;stroke-linecap:butt;stroke-linejoin:miter;stroke-miterlimit:4;stroke-dasharray:none;stroke-opacity:1"
       d="m 94.778846,185.83353 c 0.54775,0 9.859474,2.66049 9.859474,2.66049"
       id="path1324"
       inkscape:connector-curvature="0" />
    <path
       style="fill:none;stroke:#000000;stroke-width:0.92955959;stroke-linecap:butt;stroke-linejoin:miter;stroke-miterlimit:4;stroke-dasharray:none;stroke-opacity:1"
       d="m 100.72582,182.93829 8.21622,0.93899"
       id="path1326"
       inkscape:connector-curvature="0" />
    <path
       style="fill:none;stroke:#000000;stroke-width:0.92955959;stroke-linecap:butt;stroke-linejoin:miter;stroke-miterlimit:4;stroke-dasharray:none;stroke-opacity:1"
       d="m 106.35981,179.65179 7.27723,-0.54773"
       id="path1328"
       inkscape:connector-curvature="0" />
    <path
       style="fill:none;stroke:#000000;stroke-width:0.92955959;stroke-linecap:butt;stroke-linejoin:miter;stroke-miterlimit:4;stroke-dasharray:none;stroke-opacity:1"
       d="m 110.03199,174.61141 c 1.20492,0.5821 4.6596,0.30546 7.90878,-0.28059"
       id="path1330"
       inkscape:connector-curvature="0"
       sodipodi:nodetypes="cc" />
    <path
       style="fill:none;stroke:#000000;stroke-width:0.92955959;stroke-linecap:butt;stroke-linejoin:miter;stroke-miterlimit:4;stroke-dasharray:none;stroke-opacity:1"
       d="m 112.35656,168.76559 c 1.17974,0.66655 9.84688,-0.35825 9.41844,-0.773"
       id="path1332"
       inkscape:connector-curvature="0"
       sodipodi:nodetypes="cc" />
    <path
       style="fill:none;stroke:#000000;stroke-width:0.92955959;stroke-linecap:butt;stroke-linejoin:miter;stroke-miterlimit:4;stroke-dasharray:none;stroke-opacity:1"
       d="m 111.91554,163.9236 c 6.02811,1.01376 8.7734,0.0578 11.97221,-0.62599"
       id="path1334"
       inkscape:connector-curvature="0"
       sodipodi:nodetypes="cc" />
    <path
       style="fill:none;stroke:#000000;stroke-width:0.92955959;stroke-linecap:butt;stroke-linejoin:miter;stroke-miterlimit:4;stroke-dasharray:none;stroke-opacity:1"
       d="m 109.09854,158.68087 c 1.86798,2.47127 17.39177,0.76123 17.4497,-0.86075"
       id="path1336"
       inkscape:connector-curvature="0"
       sodipodi:nodetypes="cc" />
    <path
       style="fill:none;stroke:#000000;stroke-width:0.92955959;stroke-linecap:butt;stroke-linejoin:miter;stroke-miterlimit:4;stroke-dasharray:none;stroke-opacity:1"
       d="m 106.51631,153.90763 c 7.42025,2.05985 14.62684,0.59448 21.75343,-2.19099"
       id="path1338"
       inkscape:connector-curvature="0"
       sodipodi:nodetypes="cc" />
    <path
       style="fill:none;stroke:#000000;stroke-width:0.92955959;stroke-linecap:butt;stroke-linejoin:miter;stroke-miterlimit:4;stroke-dasharray:none;stroke-opacity:1"
       d="m 110.89829,149.36915 c 1.3093,3.07928 19.08787,-1.81836 18.62345,-3.52124"
       id="path1340"
       inkscape:connector-curvature="0"
       sodipodi:nodetypes="cc" />
    <path
       style="fill:none;stroke:#000000;stroke-width:0.92955959;stroke-linecap:butt;stroke-linejoin:miter;stroke-miterlimit:4;stroke-dasharray:none;stroke-opacity:1"
       d="m 113.79353,144.67417 c 5.59187,0.37693 11.33787,-1.19851 17.37144,-6.41649"
       id="path1342"
       inkscape:connector-curvature="0"
       sodipodi:nodetypes="cc" />
    <path
       style="fill:none;stroke:#000000;stroke-width:0.92955959;stroke-linecap:butt;stroke-linejoin:miter;stroke-miterlimit:4;stroke-dasharray:none;stroke-opacity:1"
       d="m 114.73253,140.60518 c 6.82908,0.1898 12.03833,-6.09984 17.4497,-11.58098"
       id="path1344"
       inkscape:connector-curvature="0"
       sodipodi:nodetypes="cc" />
    <path
       style="fill:none;stroke:#000000;stroke-width:0.92955959;stroke-linecap:butt;stroke-linejoin:miter;stroke-miterlimit:4;stroke-dasharray:none;stroke-opacity:1"
       d="m 115.43678,136.84919 c 3.1131,-0.0585 10.42558,-8.28237 17.1367,-15.33694"
       id="path1346"
       inkscape:connector-curvature="0"
       sodipodi:nodetypes="cc" />
    <path
       style="fill:none;stroke:#000000;stroke-width:0.92955959;stroke-linecap:butt;stroke-linejoin:miter;stroke-miterlimit:4;stroke-dasharray:none;stroke-opacity:1"
       d="m 115.51503,132.70195 c 7.3624,-4.81847 10.98489,-13.37687 14.24145,-22.30117"
       id="path1348"
       inkscape:connector-curvature="0"
       sodipodi:nodetypes="cc" />
    <path
       style="fill:none;stroke:#000000;stroke-width:0.92955959;stroke-linecap:butt;stroke-linejoin:miter;stroke-miterlimit:4;stroke-dasharray:none;stroke-opacity:1"
       d="m 115.20203,129.80672 c 15.15219,-19.86625 8.74644,-34.724014 3.20824,-43.037363"
       id="path1350"
       inkscape:connector-curvature="0"
       sodipodi:nodetypes="cc" />
  </g>
</svg>
